<?xml version="1.0" encoding="UTF-8"?>
<svg width="140px" height="132px" viewBox="0 0 140 132" version="1.1" xmlns="http://www.w3.org/2000/svg" xmlns:xlink="http://www.w3.org/1999/xlink">
    <title>ivarex-icon</title>
    <g id="Brand" stroke="none" stroke-width="1" fill="none" fill-rule="evenodd">
        <g id="ivarex-icon.svg" fill-rule="nonzero">
            <g id="Group">
                <path d="M65.2148438,131.126761 C64.9960938,131.126761 64.75,131.126761 64.53125,131.098336 C47.25,130.90623 31.0351562,123.990429 18.8671875,111.668229 C6.7265625,99.3185842 0,82.9347227 0,65.5628897 C0,64.2730379 1.0390625,63.2301791 2.32421875,63.2301791 C3.609375,63.2301791 4.6484375,64.2730379 4.6484375,65.5628897 C4.6484375,98.7697111 31.5820313,126.103591 64.6679688,126.432914 C64.7226562,126.432914 64.7773438,126.432914 64.8320312,126.432914 C64.96875,126.432914 65.1328125,126.460358 65.2695312,126.460358 C65.296875,126.460358 65.296875,126.460358 65.3242188,126.460358 C69.8085938,126.460358 74.2929688,125.966372 78.6679688,125.005844 C79.2695312,124.868626 79.84375,124.731408 80.4726562,124.566746 C107.84375,117.45884 126.546875,92.7046636 125.972656,64.3553689 C125.425781,35.9786305 105.710938,11.9928768 78.09375,6.01016025 C74.1289063,5.15940697 70.0546875,4.72030851 65.9804688,4.69286485 C65.9257813,4.69286485 65.8710938,4.69286485 65.7890625,4.69286485 C65.6523438,4.69286485 65.4882813,4.6654212 65.3515625,4.6654212 C64.0664063,4.69286485 63,3.650006 63,2.36015425 C62.9726563,1.07030251 64.0117188,-7.10542736e-15 65.296875,-7.10542736e-15 C65.5703125,-7.10542736e-15 65.84375,-7.10542736e-15 66.1171875,0.0274436541 C70.4648438,0.0823309623 74.8125,0.548873082 79.078125,1.45451367 C93.40625,4.55564658 106.421875,12.5143063 115.746094,23.8485354 C125.070313,35.1827646 130.347656,49.5357957 130.648438,64.2455943 C130.949219,78.9553929 126.246094,93.5005295 117.386719,105.191526 C108.527344,116.882523 95.8398438,125.390056 81.6757813,129.067505 C81.046875,129.232167 80.390625,129.396829 79.7070313,129.561491 C75.0039063,130.60435 70.1914063,131.153223 65.3515625,131.126761 C65.296875,131.126761 65.2695312,131.126761 65.2148438,131.126761 Z" id="Path" fill="#A57D51"></path>
                <path d="M3.4453125,53.9267803 C2.81640625,53.8170057 2.1875,53.954224 1.6953125,54.3384351 C1.203125,54.7226463 0.875,55.2715194 0.79296875,55.9027234 C0.328125,59.0861873 0.0546875,62.3245385 0,65.5628897 L4.67578125,65.5628897 C4.73046875,62.5440877 4.9765625,59.5527294 5.4140625,56.5888148 C5.55078125,55.3264067 4.703125,54.1463296 3.4453125,53.9267803 Z" id="Path" fill="#A57D51"></path>
                <path d="M10.609375,39.4090873 L11.59375,37.3782569 C14.1640625,32.4932865 17.3632813,27.9650835 21.1640625,23.9308664 C21.6289063,23.4368806 22.0664063,22.8880075 22.5585938,22.3940218 L24.0898438,20.9943954 C25.1289063,20.0887548 26.0859375,19.1007833 27.1796875,18.25003 C29.3398438,16.5210798 31.5820313,14.9567915 33.9609375,13.5297215 C43.421875,7.76655411 54.2773438,4.69286485 65.3515625,4.6654212 L65.3515625,7.10542736e-15 C53.4296875,0.0274436541 41.7265625,3.3481258 31.5273438,9.55039163 C28.984375,11.0872363 26.5507813,12.7887428 24.2265625,14.6549113 C23.0507813,15.5605519 22.0117188,16.6308544 20.890625,17.6188259 L19.25,19.1282269 C18.7304688,19.6496563 18.2382813,20.2259731 17.7460938,20.7748462 C13.671875,25.1109435 10.1992188,29.9684703 7.4375,35.2650955 L6.3984375,37.4605879 C6.125,38.0094609 6.0703125,38.6681086 6.26171875,39.2444254 C6.48046875,39.8481858 6.91796875,40.3147279 7.4921875,40.5617208 C8.66796875,41.0282629 10.0351563,40.5342771 10.609375,39.4090873 Z" id="Path" fill="#A57D51"></path>
                <path d="M6.6171875,45.3643602 C6.3984375,45.1722547 6.125,45.0075927 5.8515625,44.8978181 C5.25,44.7057125 4.62109375,44.7331562 4.046875,45.0075927 C3.47265625,45.3094729 3.03515625,45.8034587 2.84375,46.4346627 C2.6796875,47.0658668 2.76171875,47.7245145 3.0625,48.2733876 L3.3359375,48.6575987 C3.4453125,48.7673733 3.5546875,48.877148 3.69140625,48.9869226 C3.80078125,49.0966972 3.9375,49.1790282 4.07421875,49.2339155 C4.2109375,49.2888028 4.375,49.3436901 4.51171875,49.3985774 C5.11328125,49.5357957 5.7421875,49.4809084 6.2890625,49.1790282 C6.53515625,49.0143662 6.78125,48.8222607 6.9453125,48.5752678 C7.46484375,47.8342891 7.57421875,46.9012049 7.21875,46.0778952 C7.0546875,45.776015 6.86328125,45.5564658 6.6171875,45.3643602 Z" id="Path" fill="#A57D51"></path>
                <path d="M65.078125,112.381764 C65.1601562,112.381764 65.296875,112.409207 65.3515625,112.409207 C68.796875,112.409207 72.2421875,112.024996 75.6328125,111.284017 C76.0429688,111.201686 76.4257812,111.091912 77.0273438,110.92725 C97.9726562,105.493406 112.464844,86.3377358 112.027344,64.6298054 C111.589844,42.921875 96.3046875,24.3425212 75.1679688,19.759431 C72.1054688,19.1007833 68.9882812,18.7714594 65.84375,18.7440158 L65.7070312,18.7440158 C65.625,18.7440158 65.40625,18.7165721 65.3242188,18.7165721 C39.6484375,18.7165721 18.8125,39.5463056 18.6751052,65.2884531 C18.5390625,91.0580443 39.15625,112.079883 64.8320312,112.35432 L65.078125,112.381764 Z M23.3242187,65.5628897 C23.3242187,42.3730019 41.9726562,23.5466552 65.078125,23.409437 C65.1328125,23.409437 65.3515625,23.4368806 65.4335938,23.4368806 L65.7617188,23.4368806 C88.8125,23.6015425 107.378906,42.4553329 107.324339,65.5628897 C107.324339,84.8283348 94.3085938,101.651295 75.7148438,106.426491 C75.3046875,106.536265 74.9492188,106.618596 74.59375,106.700927 C71.640625,107.359575 68.6054688,107.716342 65.5703125,107.716342 L65.40625,107.688899 C65.3515625,107.688899 65.2695312,107.688899 65.2148438,107.688899 L64.859375,107.688899 C41.890625,107.387019 23.40625,88.6430028 23.3242187,65.5628897 Z" id="Shape" fill="#A57D51"></path>
                <path d="M66.2265625,9.55039163 C65.3515625,9.19362413 64.3671875,9.3857297 63.6835937,10.0443774 C63.4648437,10.2639266 63.3007812,10.5383632 63.1914062,10.8127997 C63.0820312,11.0872363 63,11.3891165 63,11.6909966 C63,12.3222007 63.2460937,12.9259611 63.6835937,13.3650595 C64.1210937,13.804158 64.7226562,14.0511509 65.3515625,14.0511509 C65.6523437,14.0511509 65.953125,13.9962636 66.2265625,13.8590453 C66.5,13.7492707 66.7734375,13.5846088 66.9921875,13.3650595 C67.4296875,12.9259611 67.6484375,12.3222007 67.6757812,11.6909966 C67.6757812,11.3891165 67.6210937,11.0872363 67.484375,10.8127997 C67.375,10.5383632 67.2109375,10.2639266 66.9921875,10.0443774 C66.7734375,9.82482817 66.5,9.66016625 66.2265625,9.55039163 Z" id="Path" fill="#A57D51"></path>
                <path d="M66.9921875,117.76072 C66.7734375,117.541171 66.5,117.376509 66.2265625,117.266734 C65.3515625,116.909966 64.3671875,117.102072 63.6835937,117.76072 C63.4648437,117.980269 63.3007812,118.254706 63.1914062,118.529142 C63.0820312,118.803579 63,119.105459 63,119.407339 C63,120.038543 63.2460937,120.642303 63.6835937,121.081402 C64.1210937,121.5205 64.7226562,121.767493 65.3515625,121.767493 C65.6523437,121.767493 65.953125,121.712606 66.2265625,121.575388 C66.5,121.465613 66.7734375,121.300951 66.9921875,121.081402 C67.4296875,120.642303 67.6484375,120.038543 67.6757812,119.407339 C67.6757812,119.105459 67.6210937,118.803579 67.484375,118.529142 C67.375,118.254706 67.2109375,117.980269 66.9921875,117.76072 Z" id="Path" fill="#A57D51"></path>
                <path d="M53.375,12.2398697 C53.2929687,12.1026515 53.1835938,11.9928768 53.0742188,11.8831022 C52.1445312,11.0049053 50.6953125,11.0049053 49.7929688,11.8831022 C49.3554688,12.3222007 49.109375,12.8985174 49.109375,13.5297215 C49.109375,13.8316017 49.1640625,14.1609255 49.2734375,14.4353621 C49.3828125,14.7097986 49.5742188,14.9567915 49.7929688,15.1763407 C50.2304688,15.6154392 50.8320312,15.8624321 51.4609375,15.8624321 C52.0625,15.8624321 52.6640625,15.6154392 53.1015625,15.1763407 C53.5390625,14.7372423 53.8125,14.1334819 53.8125,13.5022778 C53.8125,13.3650595 53.7851562,13.2003976 53.7578125,13.0631794 C53.7304688,12.8985174 53.6757812,12.7612992 53.6210937,12.6240809 C53.5390625,12.4868626 53.4570312,12.377088 53.375,12.2398697 Z" id="Path" fill="#A57D51"></path>
                <path d="M78.3398437,115.428009 C78.0664062,115.537784 77.8203125,115.729889 77.6015625,115.949439 C77.3828125,116.168988 77.1914062,116.415981 77.0820312,116.690417 C76.9726562,116.992297 76.890625,117.294178 76.890625,117.596058 C76.890625,118.227262 77.1367188,118.803579 77.6015625,119.242677 C77.8203125,119.462226 78.0664062,119.654332 78.3398438,119.764107 C79.2148438,120.148318 80.2265625,119.928768 80.8828125,119.242677 C81.3203125,118.803579 81.5664063,118.227262 81.5664063,117.596058 C81.5664063,117.294178 81.5117188,116.964854 81.4023438,116.690417 C80.8828125,115.51034 79.515625,114.934023 78.3398437,115.428009 Z" id="Path" fill="#A57D51"></path>
                <path d="M39.375,16.7680727 C38.9375,16.5759671 38.4726562,16.5210798 38.0078125,16.6308544 C37.8710938,16.658298 37.7070313,16.7131854 37.5976562,16.7680727 C37.4609375,16.82296 37.296875,16.8778473 37.1875,16.9876219 C37.078125,17.0699529 36.9414062,17.1797275 36.8320312,17.2620584 C36.6132812,17.4816077 36.4492188,17.7560442 36.3398438,18.0304807 C36.2304687,18.3049173 36.1484375,18.6067975 36.1484375,18.9086777 C36.1484375,19.0733396 36.1757812,19.2105579 36.203125,19.3752198 C36.2304687,19.5124381 36.2851562,19.6771 36.3398438,19.7868746 C36.3945312,19.9515365 36.4492188,20.0887548 36.5585938,20.1985294 L36.8320312,20.5552969 C36.9414062,20.6650715 37.0507812,20.7474025 37.1875,20.8297335 C37.3242188,20.9120644 37.4609375,20.9943954 37.5976562,21.0767264 C37.734375,21.1316137 37.8710938,21.1590573 38.0078125,21.186501 C38.171875,21.2139446 38.3085938,21.2413883 38.4726562,21.2413883 C38.7734375,21.2413883 39.0742188,21.186501 39.3476562,21.0767264 C39.6210938,20.9395081 39.8945312,20.7748462 40.1132812,20.5552969 C40.1953125,20.4455223 40.3046875,20.308304 40.3867188,20.1985294 C40.46875,20.0613112 40.5507812,19.9240929 40.6054688,19.7868746 C40.6601563,19.6496563 40.7148438,19.5124381 40.7421875,19.3752198 C40.7695312,19.2105579 40.796875,19.0733396 40.796875,18.9086777 C40.796875,18.6067975 40.7421875,18.3049173 40.6054688,18.0304807 C40.4414063,17.4267204 39.9765625,16.9601782 39.375,16.7680727 L39.375,16.7680727 Z" id="Path" fill="#A57D51"></path>
                <path d="M91.7109375,109.911835 C91.5742188,109.939278 91.4101562,109.994166 91.3007812,110.049053 C91.1640625,110.10394 91,110.158828 90.890625,110.268602 C90.78125,110.350933 90.6445313,110.460708 90.5351562,110.543039 C89.6328125,111.476123 89.6328125,112.95808 90.5351562,113.863721 C90.6445312,113.946052 90.78125,114.055826 90.890625,114.138157 C91.0273438,114.220488 91.1640625,114.302819 91.3007812,114.357707 C91.4375,114.412594 91.5742188,114.467481 91.7109375,114.494925 C91.875,114.522369 92.0117188,114.549812 92.1757812,114.549812 C93.1328125,114.549812 93.9804688,113.973496 94.3359375,113.095299 C94.6914062,112.217102 94.5,111.201686 93.84375,110.543039 C93.2695312,109.994166 92.4765625,109.747173 91.7109375,109.911835 Z" id="Path" fill="#A57D51"></path>
                <path d="M28.2734375,25.3030491 C27.5625,25.0011689 26.7148437,25.0560562 26.0585937,25.4951547 C25.4023437,25.9342531 25.0195312,26.6752318 25.046875,27.4710978 C25.046875,28.0748582 25.2929687,28.6786185 25.7304687,29.117717 C25.9492187,29.3372662 26.1953125,29.5293718 26.46875,29.6391464 C26.7695312,29.7489211 27.0703125,29.831252 27.3710937,29.831252 C27.671875,29.831252 27.9726562,29.7763647 28.2460937,29.6391464 C28.5195312,29.5293718 28.7929687,29.3372662 28.984375,29.117717 C29.421875,28.6786185 29.6679687,28.1023018 29.6953125,27.4710978 C29.6953125,27.1692176 29.6132812,26.8398937 29.5039062,26.5654572 C29.3945312,26.2910206 29.203125,26.0165841 28.984375,25.8244785 C28.8203125,25.6049293 28.546875,25.4402674 28.2734375,25.3030491 Z" id="Path" fill="#A57D51"></path>
                <path d="M101.636719,102.008062 C101.199219,102.447161 100.925781,103.023478 100.925781,103.654682 C100.925781,104.285886 101.171875,104.889646 101.636719,105.328744 C102.074219,105.767843 102.648437,106.014836 103.277344,106.014836 C103.90625,106.014836 104.507812,105.767843 104.945312,105.328744 C105.382812,104.889646 105.628906,104.285886 105.628906,103.654682 C105.628906,103.050921 105.382812,102.447161 104.945312,102.008062 C104.726562,101.788513 104.480469,101.596408 104.207031,101.486633 C103.304687,101.129865 102.320312,101.349415 101.636719,102.008062 Z" id="Path" fill="#A57D51"></path>
                <path d="M20.5078125,36.9666021 C19.578125,36.0884051 18.1289062,36.0884051 17.1992187,36.9666021 C16.9804688,37.1861513 16.8164062,37.4605879 16.7070312,37.7350244 C16.4609375,38.3113411 16.4609375,38.9425452 16.7070312,39.5188619 C16.8164062,39.7932985 16.9804688,40.067735 17.1992187,40.2872842 C17.6367188,40.7263827 18.2382812,40.9459319 18.8671875,40.9733756 C19.4960937,40.9733756 20.0703125,40.7263827 20.5351562,40.2872842 C20.7539062,40.067735 20.9179687,39.7932985 21.0273437,39.5188619 C21.2734375,38.9425452 21.2734375,38.3113411 21.0273437,37.7350244 C20.890625,37.4605879 20.7265625,37.1861513 20.5078125,36.9666021 Z" id="Path" fill="#A57D51"></path>
                <path d="M110.167969,90.8384951 C109.730469,91.2775936 109.511719,91.8813539 109.484375,92.512558 C109.484375,92.8144382 109.539062,93.1163184 109.675781,93.3907549 C109.785156,93.6651915 109.949219,93.939628 110.167969,94.1591772 C111.097656,95.0648178 112.574219,95.0648178 113.476563,94.1591772 C113.695313,93.939628 113.859375,93.6651915 113.96875,93.3907549 C114.078125,93.1163184 114.160156,92.8144382 114.160156,92.512558 C114.160156,91.5520301 113.585938,90.7012768 112.710938,90.3445093 C111.835938,89.9602982 110.824219,90.1524037 110.167969,90.8384951 L110.167969,90.8384951 Z" id="Path" fill="#A57D51"></path>
                <path d="M15.6679688,50.7433164 C15.6132813,50.6060982 15.53125,50.4414362 15.421875,50.3316616 C15.3398438,50.1944434 15.2578125,50.0846687 15.1484375,49.9748941 C14.21875,49.0966972 12.796875,49.0966972 11.8671875,49.9748941 C11.2109375,50.6335418 11.0195313,51.648957 11.375,52.527154 C11.7304688,53.4053509 12.578125,53.9816676 13.5078125,53.9816676 C14.1367188,53.9816676 14.7382813,53.7346747 15.1757813,53.2681326 C15.6132813,52.8290342 15.859375,52.2527174 15.859375,51.6215134 C15.859375,51.4568514 15.859375,51.2921895 15.8046875,51.1549713 C15.75,51.017753 15.6953125,50.8805347 15.6679688,50.7433164 Z" id="Path" fill="#A57D51"></path>
                <path d="M115.527344,81.1508852 C116.429688,82.0565258 117.90625,82.0565258 118.808594,81.1508852 C119.027344,80.931336 119.21875,80.6843431 119.328125,80.3824629 C119.4375,80.1080263 119.519531,79.8061461 119.519531,79.5042659 C119.519531,78.8730619 119.273438,78.2967452 118.808594,77.8576467 C117.878906,76.9794498 116.429688,76.9794498 115.527344,77.8576467 C115.089844,78.2967452 114.84375,78.8730619 114.84375,79.5042659 C114.84375,80.1080263 115.089844,80.7117867 115.527344,81.1508852 Z" id="Path" fill="#A57D51"></path>
                <path d="M13.3164063,67.2369526 C13.7539063,66.7978541 13.9726563,66.1940937 14,65.5628897 C14,65.2610095 13.9453125,64.9591293 13.8085938,64.6846927 C13.6992188,64.4102562 13.5351563,64.1358196 13.3164063,63.9162704 C12.3867188,63.0380735 10.9375,63.0380735 10.0078125,63.9162704 C9.7890625,64.1358196 9.625,64.4102562 9.515625,64.6846927 C9.40625,64.9591293 9.32421875,65.2610095 9.32421875,65.5628897 C9.32421875,66.1940937 9.5703125,66.7704104 10.0078125,67.2369526 C10.9375,68.1425931 12.4140625,68.1425931 13.3164063,67.2369526 L13.3164063,67.2369526 Z" id="Path" fill="#A57D51"></path>
                <path d="M118.125,63.394841 C117.851563,63.5046156 117.578125,63.6692775 117.359375,63.8888268 C116.457031,64.821911 116.457031,66.3038683 117.359375,67.2095089 C117.578125,67.4290581 117.851563,67.5937201 118.125,67.7034947 C118.398438,67.840713 118.699219,67.8956003 119,67.8956003 C119.957031,67.8956003 120.804688,67.3192835 121.160156,66.4410866 C121.515625,65.5628897 121.324219,64.5474745 120.667969,63.8888268 C119.984375,63.2301791 118.972656,63.0380735 118.125,63.394841 Z" id="Path" fill="#A57D51"></path>
                <path d="M11.8398438,77.8576467 C10.9375,78.7632873 10.9648438,80.2452446 11.8671875,81.1508852 C12.7695313,82.0565258 14.21875,82.0565258 15.1484375,81.1783288 C15.2578125,81.0685542 15.3398438,80.9587796 15.421875,80.8215613 C15.5039063,80.6843431 15.5859375,80.5471248 15.6679688,80.4099065 C15.7226563,80.2726883 15.75,80.13547 15.7773438,79.9982517 C15.8046875,79.8335898 15.8320313,79.6963715 15.8320313,79.5317096 C15.8320313,78.9279492 15.5859375,78.3241888 15.1484375,77.8850904 C14.21875,76.9794498 12.7695313,76.9794498 11.8398438,77.8576467 Z" id="Path" fill="#A57D51"></path>
                <path d="M118.808594,49.9748941 C118.589844,49.7553449 118.34375,49.590683 118.070312,49.4534647 C117.195312,49.0966972 116.210938,49.3162464 115.527344,49.9748941 C115.089844,50.4139926 114.84375,51.017753 114.84375,51.648957 C114.84375,51.7861753 114.84375,51.9508372 114.898438,52.0880555 C114.925781,52.2527174 114.953125,52.3899357 115.007812,52.527154 C115.089844,52.6643722 115.144531,52.8015905 115.226562,52.9113651 C115.308594,53.0485834 115.417969,53.158358 115.527344,53.2681326 C116.292969,54.0914422 117.550781,54.2286605 118.480469,53.5974565 C119.410156,52.9662524 119.765625,51.7861753 119.328125,50.7433164 C119.21875,50.4414362 119.054687,50.1669997 118.808594,49.9748941 Z" id="Path" fill="#A57D51"></path>
                <path d="M20.5078125,90.8384951 C19.578125,89.9602982 18.1289062,89.9602982 17.1992187,90.8384951 C16.9804688,91.0580443 16.8164062,91.3324809 16.7070312,91.6069174 C16.4609375,92.1832341 16.4609375,92.8144382 16.7070312,93.3907549 C16.8164062,93.6651915 16.9804688,93.939628 17.1992187,94.1591772 C17.6367188,94.5982757 18.2382812,94.8178249 18.8671875,94.8452686 C19.4960937,94.8452686 20.0703125,94.5982757 20.5351562,94.1591772 C20.7539062,93.939628 20.9179687,93.6651915 21.0273437,93.3907549 C21.2734375,92.8144382 21.2734375,92.1832341 21.0273437,91.6069174 C20.890625,91.3324809 20.7265625,91.0580443 20.5078125,90.8384951 Z" id="Path" fill="#A57D51"></path>
                <path d="M113.476562,36.9666021 C112.546875,36.0884051 111.097656,36.0884051 110.167969,36.9666021 C109.730469,37.4057005 109.484375,38.0094609 109.484375,38.640665 C109.484375,39.9305167 110.523438,40.9733756 111.808594,40.9733756 C113.09375,40.9733756 114.132812,39.9305167 114.132812,38.640665 C114.132812,38.0094609 113.886719,37.4057005 113.476562,36.9666021 Z" id="Path" fill="#A57D51"></path>
                <path d="M28.2734375,101.486633 C27.6992187,101.23964 27.0429687,101.23964 26.46875,101.486633 C26.1953125,101.596408 25.921875,101.788513 25.7304687,102.008062 C25.5117187,102.227612 25.3476562,102.474604 25.2109375,102.749041 C24.8828125,103.627238 25.0742187,104.615209 25.7304687,105.301301 C25.9492187,105.52085 26.1953125,105.685512 26.46875,105.82273 C26.7695312,105.932505 27.0703125,105.987392 27.3710937,105.987392 C27.671875,105.987392 27.9726562,105.932505 28.2460937,105.82273 C28.5195312,105.712956 28.7929687,105.52085 28.984375,105.301301 C29.421875,104.862202 29.6953125,104.285886 29.6953125,103.654682 C29.6953125,103.023478 29.4492187,102.447161 28.984375,102.008062 C28.8203125,101.788513 28.5742187,101.596408 28.2734375,101.486633 Z" id="Path" fill="#A57D51"></path>
                <path d="M104.179688,29.6391464 C104.453125,29.5293718 104.726562,29.3372662 104.917969,29.117717 C105.355469,28.6786185 105.601562,28.1023018 105.601562,27.4710978 C105.601562,26.8398937 105.355469,26.2361333 104.917969,25.7970349 C104.480469,25.3579364 103.90625,25.1109435 103.277344,25.1109435 C102.648438,25.1109435 102.074219,25.3579364 101.636719,25.7970349 C101.199219,26.2361333 100.925781,26.8398937 100.925781,27.4710978 C100.953125,28.7609495 101.992187,29.7763647 103.25,29.8038084 C103.578125,29.831252 103.90625,29.7489211 104.179688,29.6391464 Z" id="Path" fill="#A57D51"></path>
                <path d="M40.6328125,111.311461 C40.578125,111.174243 40.5234375,111.009581 40.4140625,110.899806 C40.3320312,110.790032 40.2226563,110.652813 40.140625,110.543039 C39.921875,110.32349 39.6484375,110.158828 39.375,110.021609 C38.5,109.664842 37.515625,109.884391 36.8320312,110.543039 L36.5585938,110.899806 C36.4765625,111.037025 36.3945312,111.174243 36.3398438,111.311461 C36.2851562,111.448679 36.2304687,111.585898 36.203125,111.723116 C36.1757812,111.887778 36.1484375,112.024996 36.1484375,112.189658 C36.1484375,112.491538 36.203125,112.793418 36.3398438,113.067855 C36.4492188,113.342291 36.6132812,113.616728 36.8320312,113.836277 C37.2695312,114.275376 37.8710938,114.494925 38.5,114.522369 C38.8007812,114.522369 39.1015625,114.467481 39.375,114.330263 C39.9492187,114.110714 40.4140625,113.644172 40.6328125,113.067855 C40.7695312,112.793418 40.8242187,112.491538 40.8242187,112.189658 C40.8242187,112.024996 40.796875,111.887778 40.7695312,111.723116 C40.7695313,111.585898 40.7148438,111.448679 40.6328125,111.311461 Z" id="Path" fill="#A57D51"></path>
                <path d="M90.8632812,20.8571771 C91,20.9395081 91.1367188,21.021839 91.2734375,21.0767264 C91.4101562,21.1316137 91.546875,21.186501 91.6835938,21.2139446 C91.8476562,21.2413883 91.984375,21.2413883 92.1484375,21.2688319 C92.7773438,21.2688319 93.3515625,21.021839 93.8164062,20.5827406 C94.0351562,20.3631913 94.1992188,20.0887548 94.3085938,19.8143183 C94.4453125,19.5398817 94.5,19.2380015 94.5,18.9361213 C94.5,17.6462696 93.4609375,16.6034107 92.1757812,16.6034107 C90.890625,16.6034107 89.8515625,17.6462696 89.8515625,18.9361213 C89.8515625,19.2380015 89.90625,19.5398817 90.0429688,19.8143183 C90.1523437,20.1161985 90.3164062,20.3631913 90.5351562,20.5827406 C90.6171875,20.6650715 90.7265625,20.7748462 90.8632812,20.8571771 Z" id="Path" fill="#A57D51"></path>
                <path d="M53.0742188,115.949439 C52.4179688,115.263347 51.40625,115.043798 50.53125,115.428009 C49.65625,115.784777 49.0820313,116.662974 49.109375,117.623501 C49.109375,118.227262 49.3554688,118.831022 49.7929688,119.270121 C50.2304688,119.709219 50.8320313,119.956212 51.4609375,119.983656 C52.7460938,119.956212 53.7578125,118.913353 53.7851563,117.650945 C53.7851563,117.349065 53.703125,117.019741 53.59375,116.745305 C53.484375,116.388537 53.3203125,116.141544 53.0742188,115.949439 Z" id="Path" fill="#A57D51"></path>
                <path d="M79.2148438,15.8624321 C79.84375,15.8624321 80.4453125,15.6154392 80.8828125,15.1763407 C81.7851562,14.2707001 81.7851562,12.7887428 80.8828125,11.8831022 C80.1992188,11.2244545 79.2148438,11.032349 78.3398438,11.3616728 C78.0664062,11.4714474 77.7929688,11.663553 77.6015625,11.8831022 C77.1640625,12.3222007 76.890625,12.8985174 76.890625,13.5297215 C76.890625,14.1609255 77.1367188,14.7372423 77.6015625,15.1763407 C77.8203125,15.39589 78.0664062,15.5605519 78.3398438,15.6977701 C78.6132812,15.8075448 78.9140625,15.8624321 79.2148438,15.8624321 Z" id="Path" fill="#A57D51"></path>
                <path d="M137.046875,85.1027714 C140.984375,72.3689159 140.984375,58.7568634 137.046875,46.0230079 C137.019531,45.9681206 137.019531,45.9132333 136.992187,45.858346 C134.804688,38.9151015 131.46875,32.3835118 127.148437,26.5380135 C127.121094,26.5105699 127.09375,26.4556826 127.066406,26.4282389 C114.761719,9.79738452 95.3203125,3.55271368e-15 74.6757812,3.55271368e-15 C72.84375,3.55271368e-15 71.2578125,0.0548873082 69.8085937,0.192105579 C68.9882812,0.274436541 68.25,0.768422315 67.8945312,1.53684463 C67.5390625,2.30526694 67.6210937,3.18346388 68.1132812,3.86955523 C68.6054687,4.55564658 69.3984375,4.93985774 70.2460937,4.85752678 C71.5585937,4.74775216 73.0078125,4.6654212 74.703125,4.6654212 C92.3125,4.6654212 109.046875,12.3496443 120.558594,25.7421476 L116.128906,25.7421476 C114.84375,25.7421476 113.804687,26.7850064 113.804687,28.0748582 C113.804687,29.3647099 114.84375,30.4075687 116.128906,30.4075687 L124.222656,30.4075687 C127.285156,34.7436661 129.773438,39.4639746 131.632812,44.4587197 L125.589844,44.4587197 C124.304688,44.4587197 123.265625,45.5015785 123.265625,46.7914303 C123.265625,48.081282 124.304688,49.1241408 125.589844,49.1241408 L133.136719,49.1241408 C134.421875,53.7072311 135.160156,58.4275396 135.324219,63.1752918 L128.378906,63.1752918 C127.09375,63.1752918 126.054688,64.2181506 126.054688,65.5080024 C126.054688,66.7978541 127.09375,67.840713 128.378906,67.840713 L135.324219,67.840713 C135.132812,72.5884651 134.421875,77.3087736 133.136719,81.8918639 L125.589844,81.8918639 C124.304688,81.8918639 123.265625,82.9347227 123.265625,84.2245745 C123.265625,85.5144262 124.304688,86.5572851 125.589844,86.5572851 L131.632812,86.5572851 C129.773438,91.5520301 127.285156,96.2723386 124.222656,100.608436 L116.128906,100.608436 C114.84375,100.608436 113.804687,101.651295 113.804687,102.941147 C113.804687,104.230998 114.84375,105.273857 116.128906,105.273857 L120.558594,105.273857 C109.046875,118.66636 92.3125,126.350584 74.703125,126.350584 C73.0078125,126.350584 71.5585937,126.295696 70.2460937,126.185922 C69.4257812,126.103591 68.6054687,126.487802 68.1132812,127.173893 C67.6210937,127.859984 67.5390625,128.738181 67.8945312,129.506604 C68.25,130.275026 68.9609375,130.769012 69.8085937,130.851343 C71.2578125,130.988561 72.84375,131.043448 74.6757812,131.043448 C95.3203125,131.043448 114.761719,121.246064 127.066406,104.615209 C127.09375,104.587766 127.121094,104.532878 127.148438,104.505435 C131.46875,98.6599365 134.804688,92.1283468 136.992188,85.1851023 C137.019531,85.212546 137.019531,85.1576587 137.046875,85.1027714 Z" id="Path" fill="#A57D51"></path>
                <g id="Ivarex-logo" transform="translate(19.000000, 39.000000)" fill="#A67C52" stroke="#A67C52">
                    <g id="Group" transform="translate(20.000000, 0.000000)">
                        <polygon id="Path" points="18.1758196 26.6194274 20.8104663 31.0655709 33.4251363 8.94773998 46.6446964 31.0655709 31.0380048 31.0655709 28.5476316 35.4126911 54 35.4126911 33.3126295 0"></polygon>
                        <polygon id="Path" points="20.6423678 13.3093836 0 13.3093836 20.6423678 49 33.7613334 26.3956349 38.3582327 26.5072011 33.2788774 17.7060155 20.9785649 39.9294712 7.8040076 17.7060155 18.1758196 17.7060155"></polygon>
                    </g>
                </g>
            </g>
        </g>
    </g>
</svg>